<?xml version="1.0" encoding="UTF-8"?><svg id="Layer_1" xmlns="http://www.w3.org/2000/svg" viewBox="0 0 110 35"><polygon points="8.63 35.08 15.45 35.08 15.45 32.33 12.13 32.33 12.13 2.75 15.45 2.75 15.45 0 8.63 0 8.63 35.08" fill="#005866"/><path d="M22.06,15.38c.5-.95,.75-2.04,.75-3.28v-3.66c0-1.56,.28-2.88,.83-3.95,.55-1.07,1.48-1.81,2.78-2.23l-.71-2.08c-2.31,.65-3.95,1.68-4.93,3.1-.98,1.41-1.46,3.13-1.46,5.16v3.66c0,1.34-.3,2.37-.91,3.1-.6,.73-1.53,1.09-2.79,1.09v2.61c1.25,0,2.18,.37,2.79,1.11,.6,.74,.91,1.77,.91,3.1v3.64c0,2.01,.49,3.73,1.46,5.15,.98,1.42,2.62,2.46,4.93,3.11l.71-2.09c-1.3-.43-2.23-1.17-2.78-2.23-.55-1.06-.83-2.37-.83-3.93v-3.64c0-1.22-.25-2.3-.75-3.26-.5-.95-1.25-1.7-2.25-2.25,1.01-.53,1.76-1.27,2.25-2.22Z" fill="#005866"/><polygon points="55.2 7.22 58.09 7.63 54.76 21.86 53.83 25.38 53.73 25.38 52.72 21.86 47.46 4.96 44.39 4.96 39.19 21.86 38.16 25.18 38.05 25.17 37.27 21.85 33.9 7.63 36.58 7.22 36.58 4.96 28.2 4.96 28.2 7.22 30.38 7.49 36.42 30.81 39.54 30.81 45.17 12.92 45.86 10.31 45.97 10.31 46.68 12.92 52.29 30.81 55.61 30.81 61.4 7.49 63.44 7.22 63.44 4.96 55.2 4.96 55.2 7.22" fill="#ccf8ff"/><path d="M74.97,16.2c-1.46-.37-2.62-.76-3.49-1.18-.87-.42-1.5-.91-1.88-1.46-.38-.56-.58-1.21-.58-1.95,0-.85,.21-1.59,.64-2.22,.43-.63,1.02-1.12,1.78-1.46,.76-.35,1.63-.52,2.63-.52,1.17,0,2.15,.14,2.95,.43,.79,.28,1.46,.64,1.99,1.07l.59,3.69h2.72V7.41c-.9-.78-2.04-1.45-3.43-2-1.39-.55-2.99-.83-4.8-.83-1.7,0-3.2,.31-4.47,.92-1.28,.62-2.28,1.46-2.99,2.52-.72,1.07-1.07,2.27-1.07,3.62,0,1.28,.32,2.41,.95,3.4,.63,.99,1.56,1.83,2.79,2.52s2.72,1.25,4.5,1.66c1.5,.34,2.69,.74,3.56,1.2,.87,.46,1.49,.99,1.87,1.59,.38,.6,.57,1.3,.57,2.09,0,.85-.22,1.6-.66,2.24-.44,.64-1.07,1.14-1.89,1.5-.82,.36-1.83,.54-3.01,.54-1.04,0-2.01-.13-2.91-.39-.9-.26-1.73-.63-2.5-1.1l-.59-4.07h-2.72v5.52c1.32,.96,2.72,1.67,4.17,2.13s2.97,.69,4.54,.69c1.83,0,3.43-.3,4.78-.91,1.35-.6,2.41-1.44,3.15-2.51,.75-1.07,1.12-2.3,1.12-3.68,0-1.94-.7-3.57-2.1-4.89-1.4-1.32-3.46-2.32-6.19-2.99Z" fill="#ccf8ff"/><path d="M90.92,12.1v-3.66c0-2.02-.49-3.74-1.46-5.16-.98-1.41-2.61-2.45-4.91-3.1l-.71,2.08c1.28,.41,2.19,1.16,2.75,2.23,.56,1.07,.83,2.39,.83,3.95v3.66c0,1.29,.27,2.41,.8,3.36,.53,.95,1.35,1.66,2.47,2.15-1.11,.51-1.93,1.24-2.47,2.18-.53,.95-.8,2.05-.8,3.32v3.64c0,1.56-.28,2.87-.83,3.93-.56,1.06-1.47,1.8-2.75,2.23l.71,2.09c2.3-.65,3.93-1.69,4.91-3.11,.98-1.42,1.46-3.14,1.46-5.15v-3.64c0-1.32,.3-2.36,.91-3.1,.6-.74,1.54-1.11,2.8-1.11v-2.61c-1.27,0-2.2-.36-2.8-1.09-.6-.73-.91-1.76-.91-3.1Z" fill="#005866"/><polygon points="94.74 0 94.74 2.75 98.08 2.75 98.08 32.33 94.74 32.33 94.74 35.08 101.57 35.08 101.57 0 94.74 0" fill="#005866"/></svg>